<svg xmlns="http://www.w3.org/2000/svg" xmlns:xlink="http://www.w3.org/1999/xlink" width="500" zoomAndPan="magnify" viewBox="0 0 375 374.999991" height="500" preserveAspectRatio="xMidYMid meet" version="1.0"><defs><g/></defs><g fill="#1e3a8a" fill-opacity="1"><g transform="translate(117.565566, 191.321267)"><g><path d="M 21.421875 -18.484375 L 17.71875 0 L 14.203125 0 L 7.3125 -11.5625 L 4.984375 0 L 0.765625 0 L 4.46875 -18.484375 L 8 -18.484375 L 14.890625 -6.890625 L 17.1875 -18.484375 Z M 21.421875 -18.484375 "/></g></g></g><g fill="#14532d" fill-opacity="1"><g transform="translate(145.596814, 191.321267)"><g><path d="M 10.34375 0.3125 C 8.5 0.3125 6.898438 -0.0195312 5.546875 -0.6875 C 4.191406 -1.351562 3.148438 -2.289062 2.421875 -3.5 C 1.703125 -4.71875 1.34375 -6.117188 1.34375 -7.703125 C 1.34375 -9.804688 1.820312 -11.695312 2.78125 -13.375 C 3.738281 -15.050781 5.082031 -16.375 6.8125 -17.34375 C 8.550781 -18.3125 10.539062 -18.796875 12.78125 -18.796875 C 14.625 -18.796875 16.222656 -18.460938 17.578125 -17.796875 C 18.941406 -17.128906 19.984375 -16.1875 20.703125 -14.96875 C 21.421875 -13.757812 21.78125 -12.363281 21.78125 -10.78125 C 21.78125 -8.675781 21.300781 -6.785156 20.34375 -5.109375 C 19.382812 -3.429688 18.035156 -2.109375 16.296875 -1.140625 C 14.566406 -0.171875 12.582031 0.3125 10.34375 0.3125 Z M 10.71875 -3.328125 C 12.070312 -3.328125 13.257812 -3.648438 14.28125 -4.296875 C 15.300781 -4.953125 16.082031 -5.828125 16.625 -6.921875 C 17.175781 -8.015625 17.453125 -9.21875 17.453125 -10.53125 C 17.453125 -11.945312 17.007812 -13.070312 16.125 -13.90625 C 15.25 -14.738281 14.007812 -15.15625 12.40625 -15.15625 C 11.050781 -15.15625 9.863281 -14.828125 8.84375 -14.171875 C 7.820312 -13.523438 7.035156 -12.65625 6.484375 -11.5625 C 5.941406 -10.46875 5.671875 -9.265625 5.671875 -7.953125 C 5.671875 -6.535156 6.109375 -5.410156 6.984375 -4.578125 C 7.867188 -3.742188 9.113281 -3.328125 10.71875 -3.328125 Z M 10.71875 -3.328125 "/></g></g></g><g fill="#14532d" fill-opacity="1"><g transform="translate(174.576972, 191.321267)"><g><path d="M 7.578125 -15 L 1.65625 -15 L 2.375 -18.484375 L 18.484375 -18.484375 L 17.765625 -15 L 11.890625 -15 L 8.875 0 L 4.59375 0 Z M 7.578125 -15 "/></g></g></g><g fill="#14532d" fill-opacity="1"><g transform="translate(197.592847, 191.321267)"><g><path d="M 8.03125 -15.046875 L 7.234375 -11.03125 L 15.8125 -11.03125 L 15.15625 -7.703125 L 6.546875 -7.703125 L 5.703125 -3.4375 L 15.796875 -3.4375 L 15.078125 0 L 0.765625 0 L 4.46875 -18.484375 L 18.4375 -18.484375 L 17.71875 -15.046875 Z M 8.03125 -15.046875 "/></g></g></g><g fill="#14532d" fill-opacity="1"><g transform="translate(222.00742, 191.321267)"><g><path d="M 7.203125 0.3125 C 5.742188 0.3125 4.34375 0.117188 3 -0.265625 C 1.664062 -0.648438 0.59375 -1.144531 -0.21875 -1.75 L 1.53125 -5.046875 C 2.375 -4.429688 3.320312 -3.953125 4.375 -3.609375 C 5.4375 -3.273438 6.519531 -3.109375 7.625 -3.109375 C 8.8125 -3.109375 9.742188 -3.300781 10.421875 -3.6875 C 11.109375 -4.082031 11.453125 -4.613281 11.453125 -5.28125 C 11.453125 -5.820312 11.179688 -6.238281 10.640625 -6.53125 C 10.097656 -6.820312 9.226562 -7.132812 8.03125 -7.46875 C 6.832031 -7.820312 5.851562 -8.160156 5.09375 -8.484375 C 4.34375 -8.816406 3.6875 -9.304688 3.125 -9.953125 C 2.570312 -10.609375 2.296875 -11.472656 2.296875 -12.546875 C 2.296875 -13.796875 2.644531 -14.894531 3.34375 -15.84375 C 4.039062 -16.789062 5.023438 -17.519531 6.296875 -18.03125 C 7.578125 -18.539062 9.0625 -18.796875 10.75 -18.796875 C 12 -18.796875 13.175781 -18.660156 14.28125 -18.390625 C 15.394531 -18.117188 16.347656 -17.726562 17.140625 -17.21875 L 15.53125 -13.9375 C 14.84375 -14.414062 14.066406 -14.773438 13.203125 -15.015625 C 12.335938 -15.253906 11.441406 -15.375 10.515625 -15.375 C 9.296875 -15.375 8.332031 -15.160156 7.625 -14.734375 C 6.925781 -14.304688 6.578125 -13.757812 6.578125 -13.09375 C 6.578125 -12.6875 6.722656 -12.347656 7.015625 -12.078125 C 7.316406 -11.804688 7.695312 -11.585938 8.15625 -11.421875 C 8.613281 -11.253906 9.257812 -11.054688 10.09375 -10.828125 C 11.269531 -10.503906 12.234375 -10.179688 12.984375 -9.859375 C 13.742188 -9.535156 14.390625 -9.0625 14.921875 -8.4375 C 15.460938 -7.8125 15.734375 -6.988281 15.734375 -5.96875 C 15.734375 -4.695312 15.378906 -3.585938 14.671875 -2.640625 C 13.972656 -1.703125 12.976562 -0.972656 11.6875 -0.453125 C 10.40625 0.0546875 8.910156 0.3125 7.203125 0.3125 Z M 7.203125 0.3125 "/></g></g></g></svg>