<svg xmlns="http://www.w3.org/2000/svg" xmlns:xlink="http://www.w3.org/1999/xlink" width="500" zoomAndPan="magnify" viewBox="0 0 375 374.999991" height="500" preserveAspectRatio="xMidYMid meet" version="1.0"><defs><clipPath id="135fe6d743"><path d="M 177 98.171875 L 215 98.171875 L 215 221 L 177 221 Z M 177 98.171875 " clip-rule="nonzero"/></clipPath><clipPath id="32f2a9fbae"><path d="M 214 98.171875 L 223.5 98.171875 L 223.5 229.421875 L 214 229.421875 Z M 214 98.171875 " clip-rule="nonzero"/></clipPath><clipPath id="6511761d70"><path d="M 151.5 98.171875 L 161 98.171875 L 161 206 L 151.5 206 Z M 151.5 98.171875 " clip-rule="nonzero"/></clipPath><clipPath id="c720d8509e"><path d="M 196 75 L 253 75 L 253 117 L 196 117 Z M 196 75 " clip-rule="nonzero"/></clipPath><clipPath id="efdade9dcd"><path d="M 200.222656 66.136719 L 256.953125 89.886719 L 244.207031 120.328125 L 187.476562 96.574219 Z M 200.222656 66.136719 " clip-rule="nonzero"/></clipPath><clipPath id="556a2bfb11"><path d="M 200.222656 66.136719 L 256.953125 89.886719 L 244.207031 120.328125 L 187.476562 96.574219 Z M 200.222656 66.136719 " clip-rule="nonzero"/></clipPath><clipPath id="b65cdcdd49"><path d="M 200.222656 66.136719 L 256.953125 89.886719 L 244.207031 120.328125 L 187.476562 96.574219 Z M 200.222656 66.136719 " clip-rule="nonzero"/></clipPath><clipPath id="6f76056a55"><path d="M 200.222656 66.136719 L 256.953125 89.886719 L 244.207031 120.328125 L 187.480469 96.574219 Z M 200.222656 66.136719 " clip-rule="nonzero"/></clipPath><clipPath id="96d284bd9a"><path d="M 200.222656 66.136719 L 256.953125 89.886719 L 244.207031 120.328125 L 187.480469 96.574219 Z M 200.222656 66.136719 " clip-rule="nonzero"/></clipPath><clipPath id="1ef4a42d61"><path d="M 159.121094 145.394531 L 164.296875 145.394531 L 164.296875 170.519531 L 159.121094 170.519531 Z M 159.121094 145.394531 " clip-rule="nonzero"/></clipPath><clipPath id="35e6381e9e"><path d="M 159.148438 168.375 C 160.199219 145.726562 161.101562 145.425781 161.699219 145.425781 C 162.074219 145.351562 162.523438 145.574219 162.824219 145.875 C 163.125 146.25 163.5 147.074219 163.425781 147.601562 C 163.351562 148.125 162.75 148.800781 162.375 149.023438 C 162 149.25 161.476562 149.324219 161.101562 149.25 C 160.726562 149.175781 160.273438 148.949219 160.050781 148.574219 C 159.75 148.199219 159.449219 147.375 159.601562 146.851562 C 159.824219 146.25 160.875 145.5 161.476562 145.425781 C 161.851562 145.351562 162.300781 145.5 162.675781 145.726562 C 163.050781 146.101562 163.199219 146.476562 163.425781 147.375 C 164.175781 150.449219 164.925781 165.898438 163.351562 168.898438 C 162.75 169.949219 161.699219 170.550781 161.023438 170.476562 C 160.351562 170.398438 159.148438 168.375 159.148438 168.375 " clip-rule="nonzero"/></clipPath><clipPath id="ec16b9ca16"><path d="M 158.648438 157.394531 L 164.148438 157.394531 L 164.148438 184.929688 L 158.648438 184.929688 Z M 158.648438 157.394531 " clip-rule="nonzero"/></clipPath><clipPath id="45caa92dd6"><path d="M 159 182.773438 C 159.601562 158.023438 160.199219 157.5 160.875 157.425781 C 161.476562 157.351562 162.449219 157.800781 162.898438 158.550781 C 163.574219 159.675781 163.5 163.425781 163.199219 164.851562 C 163.050781 165.675781 162.75 166.273438 162.300781 166.648438 C 161.773438 166.949219 160.875 167.023438 160.273438 166.800781 C 159.75 166.574219 159.074219 165.898438 159 165.300781 C 158.925781 164.625 159.523438 163.273438 160.125 162.976562 C 160.726562 162.675781 162.148438 162.976562 162.601562 163.425781 C 163.050781 163.800781 163.351562 164.773438 163.125 165.300781 C 162.976562 165.976562 161.851562 166.875 161.175781 166.949219 C 160.574219 167.023438 159.824219 166.726562 159.375 166.125 C 158.625 165 158.398438 160.351562 159.148438 159 C 159.601562 158.101562 160.648438 157.425781 161.324219 157.425781 C 161.925781 157.5 162.601562 158.023438 163.050781 159 C 164.476562 162.074219 164.476562 179.25 163.199219 182.773438 C 162.75 183.976562 162 184.648438 161.324219 184.875 C 160.875 185.023438 160.273438 184.800781 159.898438 184.5 C 159.449219 184.199219 159 182.773438 159 182.773438 " clip-rule="nonzero"/></clipPath><clipPath id="78df429b43"><path d="M 157.808594 113.585938 L 163.828125 113.585938 L 163.828125 151.867188 L 157.808594 151.867188 Z M 157.808594 113.585938 " clip-rule="nonzero"/></clipPath><clipPath id="78a08b406f"><path d="M 159.148438 149.625 C 157.949219 115.199219 157.949219 114.976562 158.324219 114.601562 C 158.699219 114.148438 159.75 113.625 160.351562 113.625 C 160.875 113.625 161.398438 113.851562 161.773438 114.226562 C 162.226562 114.675781 162.601562 115.648438 162.601562 116.324219 C 162.601562 116.851562 162.300781 117.375 161.925781 117.675781 C 161.476562 118.125 160.425781 118.5 159.824219 118.425781 C 159.148438 118.273438 158.324219 117.601562 158.023438 117 C 157.726562 116.398438 157.800781 115.351562 158.175781 114.75 C 158.550781 114.226562 159.449219 113.625 160.125 113.625 C 160.875 113.699219 161.851562 114.148438 162.449219 115.273438 C 164.324219 118.574219 163.574219 133.574219 163.648438 140.101562 C 163.726562 144.375 164.101562 148.949219 163.351562 150.601562 C 163.125 151.199219 162.675781 151.5 162.226562 151.648438 C 161.699219 151.875 161.101562 151.949219 160.574219 151.648438 C 159.976562 151.351562 159.148438 149.625 159.148438 149.625 " clip-rule="nonzero"/></clipPath><clipPath id="23f1c3b9f9"><path d="M 157.472656 186.648438 L 162.019531 186.648438 L 162.019531 191.234375 L 157.472656 191.234375 Z M 157.472656 186.648438 " clip-rule="nonzero"/></clipPath><clipPath id="b70c05e008"><path d="M 157.5 188.925781 C 159 186.675781 160.050781 186.601562 160.574219 186.824219 C 161.175781 187.050781 161.851562 187.800781 162 188.398438 C 162.074219 189 161.851562 189.976562 161.398438 190.425781 C 160.949219 190.875 159.976562 191.25 159.375 191.101562 C 158.773438 191.023438 157.949219 190.425781 157.726562 189.824219 C 157.425781 189.300781 157.5 188.25 157.800781 187.726562 C 158.175781 187.199219 159.074219 186.75 159.675781 186.675781 C 160.125 186.601562 160.648438 186.75 161.023438 187.050781 C 161.476562 187.425781 162 188.324219 162 188.925781 C 162.074219 189.449219 161.773438 190.050781 161.476562 190.425781 C 161.175781 190.800781 160.574219 191.101562 160.125 191.175781 C 159.601562 191.25 158.925781 191.175781 158.550781 190.875 C 158.023438 190.5 157.5 189 157.5 189 " clip-rule="nonzero"/></clipPath><clipPath id="9a5f8291f9"><path d="M 158.425781 183.589844 L 162.6875 183.589844 L 162.6875 187.234375 L 158.425781 187.234375 Z M 158.425781 183.589844 " clip-rule="nonzero"/></clipPath><clipPath id="fffff8b5d5"><path d="M 162.675781 184.875 C 160.800781 187.875 159 187.351562 158.625 186.75 C 158.25 186.074219 158.550781 184.273438 159.148438 183.75 C 159.75 183.300781 162.148438 183.976562 162.148438 183.976562 " clip-rule="nonzero"/></clipPath><clipPath id="a4e3b8d9f7"><path d="M 158.300781 183.273438 L 162.84375 183.273438 L 162.84375 187.859375 L 158.300781 187.859375 Z M 158.300781 183.273438 " clip-rule="nonzero"/></clipPath><clipPath id="66511f9878"><path d="M 162.824219 185.550781 C 161.324219 187.800781 160.273438 187.875 159.75 187.648438 C 159.148438 187.425781 158.476562 186.675781 158.324219 186.074219 C 158.25 185.476562 158.476562 184.5 158.925781 184.050781 C 159.375 183.601562 160.273438 183.226562 160.949219 183.375 C 161.550781 183.449219 162.300781 184.050781 162.601562 184.648438 C 162.824219 185.175781 162.824219 186.226562 162.449219 186.75 C 162.148438 187.273438 161.25 187.726562 160.648438 187.800781 C 160.199219 187.875 159.675781 187.726562 159.300781 187.425781 C 158.851562 187.050781 158.324219 186.226562 158.324219 185.550781 C 158.324219 184.949219 158.773438 184.050781 159.226562 183.675781 C 159.675781 183.375 160.273438 183.226562 160.800781 183.300781 C 161.324219 183.375 161.925781 183.675781 162.226562 184.050781 C 162.523438 184.425781 162.824219 185.550781 162.824219 185.550781 " clip-rule="nonzero"/></clipPath><clipPath id="755217528d"><path d="M 158.597656 194.222656 L 163.144531 194.222656 L 163.144531 198.769531 L 158.597656 198.769531 Z M 158.597656 194.222656 " clip-rule="nonzero"/></clipPath><clipPath id="59f1d7596b"><path d="M 158.625 196.5 C 160.125 194.25 161.175781 194.175781 161.699219 194.398438 C 162.300781 194.625 162.976562 195.375 163.050781 195.976562 C 163.199219 196.574219 162.976562 197.550781 162.523438 198 C 162.074219 198.449219 161.101562 198.824219 160.5 198.675781 C 159.898438 198.601562 159.074219 198 158.851562 197.398438 C 158.550781 196.875 158.625 195.824219 158.925781 195.300781 C 159.300781 194.773438 160.199219 194.324219 160.800781 194.25 C 161.25 194.175781 161.773438 194.324219 162.148438 194.625 C 162.601562 195 163.125 195.898438 163.125 196.5 C 163.199219 196.949219 162.898438 197.625 162.601562 198 C 162.300781 198.375 161.699219 198.675781 161.175781 198.75 C 160.574219 198.75 159.675781 198.449219 159.226562 198 C 158.851562 197.625 158.625 196.5 158.625 196.5 " clip-rule="nonzero"/></clipPath><clipPath id="68fc83f184"><path d="M 158.761719 194.425781 L 163.0625 194.425781 L 163.0625 198.074219 L 158.761719 198.074219 Z M 158.761719 194.425781 " clip-rule="nonzero"/></clipPath><clipPath id="95c095b4b5"><path d="M 163.050781 195.75 C 161.101562 198.75 159.375 198.148438 159 197.550781 C 158.550781 196.949219 158.925781 195.074219 159.523438 194.625 C 160.125 194.175781 162.449219 194.773438 162.449219 194.773438 " clip-rule="nonzero"/></clipPath><clipPath id="e2b86faac6"><path d="M 158.351562 192.175781 L 162.613281 192.175781 L 162.613281 195.824219 L 158.351562 195.824219 Z M 158.351562 192.175781 " clip-rule="nonzero"/></clipPath><clipPath id="2a0490f662"><path d="M 162.601562 193.425781 C 160.726562 196.5 158.925781 195.898438 158.550781 195.300781 C 158.175781 194.625 158.476562 192.824219 159.074219 192.375 C 159.675781 191.925781 162.074219 192.523438 162.074219 192.523438 " clip-rule="nonzero"/></clipPath><clipPath id="6a9ed557a8"><path d="M 157.792969 195.144531 L 162.304688 195.144531 L 162.304688 199.695312 L 157.792969 199.695312 Z M 157.792969 195.144531 " clip-rule="nonzero"/></clipPath><clipPath id="5f7aa95a65"><path d="M 161.699219 195.824219 C 162.148438 198.449219 161.550781 199.273438 160.949219 199.5 C 160.425781 199.726562 159.375 199.648438 158.851562 199.351562 C 158.324219 198.976562 157.800781 198.148438 157.800781 197.476562 C 157.800781 196.875 158.25 195.976562 158.773438 195.601562 C 159.226562 195.226562 160.273438 195.148438 160.875 195.300781 C 161.398438 195.523438 162.074219 196.273438 162.226562 196.875 C 162.375 197.476562 162.074219 198.449219 161.773438 198.976562 C 161.476562 199.351562 160.949219 199.574219 160.5 199.648438 C 159.898438 199.726562 158.925781 199.5 158.476562 199.050781 C 158.023438 198.601562 157.800781 197.625 157.800781 197.023438 C 157.875 196.5 158.25 195.976562 158.625 195.675781 C 159 195.375 159.675781 195.148438 160.125 195.148438 C 160.648438 195.226562 161.625 195.824219 161.625 195.824219 " clip-rule="nonzero"/></clipPath><clipPath id="b86d4922da"><path d="M 158.050781 197 L 162.3125 197 L 162.3125 200.621094 L 158.050781 200.621094 Z M 158.050781 197 " clip-rule="nonzero"/></clipPath><clipPath id="2d3b68513f"><path d="M 162.300781 198.300781 C 160.425781 201.300781 158.625 200.773438 158.25 200.101562 C 157.875 199.5 158.175781 197.625 158.773438 197.175781 C 159.375 196.726562 161.773438 197.324219 161.773438 197.324219 " clip-rule="nonzero"/></clipPath><clipPath id="f88dd82570"><path d="M 158.050781 191.539062 L 162.3125 191.539062 L 162.3125 195.148438 L 158.050781 195.148438 Z M 158.050781 191.539062 " clip-rule="nonzero"/></clipPath><clipPath id="c63514b1e6"><path d="M 162.300781 192.824219 C 160.425781 195.824219 158.625 195.300781 158.25 194.625 C 157.875 194.023438 158.175781 192.148438 158.773438 191.699219 C 159.375 191.25 161.773438 191.925781 161.773438 191.925781 " clip-rule="nonzero"/></clipPath><clipPath id="be71183628"><path d="M 158.386719 188.351562 L 162.6875 188.351562 L 162.6875 191.996094 L 158.386719 191.996094 Z M 158.386719 188.351562 " clip-rule="nonzero"/></clipPath><clipPath id="61d2b329ec"><path d="M 162.675781 189.601562 C 160.800781 192.675781 159 192.074219 158.625 191.476562 C 158.175781 190.800781 158.550781 189 159.148438 188.550781 C 159.75 188.101562 162.148438 188.699219 162.148438 188.699219 " clip-rule="nonzero"/></clipPath><clipPath id="c10552d7b6"><path d="M 158.242188 188 L 162.796875 188 L 162.796875 192.570312 L 158.242188 192.570312 Z M 158.242188 188 " clip-rule="nonzero"/></clipPath><clipPath id="63ab3b5fad"><path d="M 158.25 190.273438 C 159.75 188.101562 160.800781 187.949219 161.324219 188.175781 C 161.925781 188.398438 162.601562 189.226562 162.75 189.824219 C 162.824219 190.425781 162.601562 191.398438 162.148438 191.851562 C 161.699219 192.300781 160.800781 192.601562 160.125 192.523438 C 159.523438 192.375 158.773438 191.773438 158.476562 191.25 C 158.25 190.648438 158.25 189.675781 158.625 189.148438 C 158.925781 188.625 159.824219 188.101562 160.425781 188.023438 C 160.875 187.949219 161.398438 188.101562 161.773438 188.398438 C 162.226562 188.773438 162.75 189.675781 162.75 190.273438 C 162.824219 190.800781 162.523438 191.398438 162.226562 191.773438 C 161.925781 192.148438 161.324219 192.523438 160.800781 192.523438 C 160.199219 192.601562 159.300781 192.226562 158.851562 191.773438 C 158.476562 191.476562 158.25 190.351562 158.25 190.351562 " clip-rule="nonzero"/></clipPath><clipPath id="38f28896db"><path d="M 158.523438 195.273438 L 163.066406 195.273438 L 163.066406 199.859375 L 158.523438 199.859375 Z M 158.523438 195.273438 " clip-rule="nonzero"/></clipPath><clipPath id="d2f5f82b1c"><path d="M 163.050781 197.550781 C 161.550781 199.800781 160.574219 199.875 159.976562 199.648438 C 159.449219 199.425781 158.773438 198.675781 158.625 198.074219 C 158.476562 197.476562 158.773438 196.5 159.226562 196.050781 C 159.601562 195.601562 160.574219 195.226562 161.175781 195.375 C 161.773438 195.449219 162.601562 196.050781 162.898438 196.648438 C 163.125 197.175781 163.050781 198.226562 162.75 198.75 C 162.449219 199.273438 161.550781 199.726562 160.949219 199.800781 C 160.5 199.875 159.976562 199.726562 159.601562 199.425781 C 159.074219 199.050781 158.625 198.148438 158.550781 197.550781 C 158.550781 197.023438 158.773438 196.425781 159.148438 196.050781 C 159.449219 195.675781 160.050781 195.375 160.5 195.300781 C 161.023438 195.226562 161.699219 195.375 162.074219 195.675781 C 162.523438 196.050781 163.050781 197.550781 163.050781 197.550781 " clip-rule="nonzero"/></clipPath><clipPath id="1e1b2eb63a"><path d="M 158.386719 197.914062 L 162.6875 197.914062 L 162.6875 201.523438 L 158.386719 201.523438 Z M 158.386719 197.914062 " clip-rule="nonzero"/></clipPath><clipPath id="36c5f435b3"><path d="M 162.675781 199.199219 C 160.726562 202.199219 159 201.675781 158.625 201 C 158.175781 200.398438 158.550781 198.523438 159.148438 198.074219 C 159.75 197.625 162.074219 198.300781 162.074219 198.300781 " clip-rule="nonzero"/></clipPath><clipPath id="89ec98194d"><path d="M 158.464844 199.375 L 162.761719 199.375 L 162.761719 203 L 158.464844 203 Z M 158.464844 199.375 " clip-rule="nonzero"/></clipPath><clipPath id="35d6ce5844"><path d="M 162.75 200.699219 C 160.800781 203.699219 159 203.101562 158.625 202.5 C 158.25 201.824219 158.625 200.023438 159.148438 199.574219 C 159.75 199.125 162.148438 199.726562 162.148438 199.726562 " clip-rule="nonzero"/></clipPath><clipPath id="be8b567d2e"><path d="M 158.351562 200.316406 L 162.613281 200.316406 L 162.613281 203.921875 L 158.351562 203.921875 Z M 158.351562 200.316406 " clip-rule="nonzero"/></clipPath><clipPath id="0d99d5264b"><path d="M 162.601562 201.601562 C 160.726562 204.601562 158.925781 204.074219 158.550781 203.398438 C 158.175781 202.800781 158.476562 200.925781 159.074219 200.476562 C 159.675781 200.023438 162.074219 200.699219 162.074219 200.699219 " clip-rule="nonzero"/></clipPath><clipPath id="a9aabdb947"><path d="M 158.5 200.464844 L 162.761719 200.464844 L 162.761719 204.109375 L 158.5 204.109375 Z M 158.5 200.464844 " clip-rule="nonzero"/></clipPath><clipPath id="c09289237b"><path d="M 162.75 201.75 C 160.875 204.824219 159.074219 204.226562 158.699219 203.625 C 158.324219 202.949219 158.625 201.148438 159.226562 200.625 C 159.824219 200.175781 162.226562 200.851562 162.226562 200.851562 " clip-rule="nonzero"/></clipPath><clipPath id="93be6ad0b1"><path d="M 158.597656 110.597656 L 163.226562 110.597656 L 163.226562 115.183594 L 158.597656 115.183594 Z M 158.597656 110.597656 " clip-rule="nonzero"/></clipPath><clipPath id="d67f4b5e10"><path d="M 163.199219 112.875 C 161.625 115.125 160.648438 115.199219 160.050781 114.976562 C 159.523438 114.75 158.851562 114 158.699219 113.398438 C 158.550781 112.800781 158.851562 111.824219 159.300781 111.375 C 159.675781 110.925781 160.648438 110.550781 161.25 110.699219 C 161.925781 110.773438 162.675781 111.375 162.976562 111.976562 C 163.199219 112.5 163.125 113.550781 162.824219 114.074219 C 162.523438 114.601562 161.625 115.050781 161.023438 115.125 C 160.574219 115.199219 160.050781 115.050781 159.675781 114.75 C 159.226562 114.375 158.699219 113.476562 158.625 112.875 C 158.625 112.351562 158.851562 111.75 159.226562 111.375 C 159.523438 111 160.125 110.699219 160.648438 110.625 C 161.101562 110.550781 161.773438 110.699219 162.148438 111 C 162.675781 111.375 163.199219 112.875 163.199219 112.875 " clip-rule="nonzero"/></clipPath><clipPath id="c9097f5b89"><path d="M 159.601562 109 L 161.050781 109 L 161.050781 110.199219 L 159.601562 110.199219 Z M 159.601562 109 " clip-rule="nonzero"/></clipPath><clipPath id="ce3d7e3d9a"><path d="M 161.023438 109.425781 C 160.351562 110.398438 159.75 110.25 159.675781 110.023438 C 159.523438 109.800781 159.675781 109.199219 159.824219 109.050781 C 160.050781 108.898438 160.800781 109.125 160.800781 109.125 " clip-rule="nonzero"/></clipPath><clipPath id="a840e1b356"><path d="M 158.1875 108.089844 L 165 108.089844 L 165 118.050781 L 158.1875 118.050781 Z M 158.1875 108.089844 " clip-rule="nonzero"/></clipPath><clipPath id="196f291e6a"><path d="M 159.523438 108.300781 C 165 117.375 165 117.675781 164.773438 117.824219 C 164.625 117.976562 163.875 117.976562 163.726562 117.75 C 163.574219 117.601562 163.648438 116.851562 163.800781 116.699219 C 164.023438 116.550781 164.773438 116.625 164.925781 116.851562 C 165.074219 117.074219 164.925781 117.75 164.699219 117.898438 C 164.476562 118.050781 164.101562 118.050781 163.800781 117.824219 C 162.601562 117.074219 158.476562 110.550781 158.25 109.050781 C 158.175781 108.601562 158.324219 108.300781 158.550781 108.148438 C 158.773438 108 159.523438 108.300781 159.523438 108.300781 " clip-rule="nonzero"/></clipPath><clipPath id="31e6511bc1"><path d="M 158.671875 106.847656 L 161.507812 106.847656 L 161.507812 111.445312 L 158.671875 111.445312 Z M 158.671875 106.847656 " clip-rule="nonzero"/></clipPath><clipPath id="e4d88a4af5"><path d="M 160.125 107.25 C 161.324219 111.449219 160.199219 111.523438 160.050781 111.300781 C 159.976562 111.148438 160.273438 110.398438 160.5 110.324219 C 160.726562 110.25 161.550781 110.851562 161.476562 111.074219 C 161.476562 111.226562 160.5 111.601562 160.125 111.375 C 159.449219 111.074219 158.625 108.375 158.699219 107.625 C 158.773438 107.25 159.148438 106.949219 159.375 106.875 C 159.601562 106.800781 160.125 107.25 160.125 107.25 " clip-rule="nonzero"/></clipPath><clipPath id="6e71c62570"><path d="M 159.378906 107.550781 L 160.828125 107.550781 L 160.828125 108.773438 L 159.378906 108.773438 Z M 159.378906 107.550781 " clip-rule="nonzero"/></clipPath><clipPath id="a4be04710c"><path d="M 160.800781 108 C 160.199219 108.976562 159.601562 108.824219 159.449219 108.601562 C 159.300781 108.375 159.449219 107.773438 159.601562 107.625 C 159.824219 107.476562 160.648438 107.699219 160.648438 107.699219 " clip-rule="nonzero"/></clipPath><clipPath id="c047ced240"><path d="M 158.164062 200.765625 L 162.464844 200.765625 L 162.464844 204.371094 L 158.164062 204.371094 Z M 158.164062 200.765625 " clip-rule="nonzero"/></clipPath><clipPath id="a813a47d71"><path d="M 162.449219 202.050781 C 160.5 205.050781 158.699219 204.523438 158.324219 203.851562 C 157.949219 203.25 158.324219 201.375 158.851562 200.925781 C 159.449219 200.476562 161.851562 201.148438 161.851562 201.148438 " clip-rule="nonzero"/></clipPath><clipPath id="28d4daea2d"><path d="M 158.390625 200.539062 L 162.6875 200.539062 L 162.6875 204.1875 L 158.390625 204.1875 Z M 158.390625 200.539062 " clip-rule="nonzero"/></clipPath><clipPath id="d01895c9e1"><path d="M 162.675781 201.824219 C 160.726562 204.898438 159 204.300781 158.550781 203.699219 C 158.175781 203.023438 158.550781 201.226562 159.148438 200.699219 C 159.675781 200.25 162.074219 200.925781 162.074219 200.925781 " clip-rule="nonzero"/></clipPath><clipPath id="ac657bb140"><path d="M 158.390625 200.839844 L 162.6875 200.839844 L 162.6875 204.449219 L 158.390625 204.449219 Z M 158.390625 200.839844 " clip-rule="nonzero"/></clipPath><clipPath id="f32da12d5f"><path d="M 162.675781 202.125 C 160.726562 205.125 159 204.601562 158.550781 203.925781 C 158.175781 203.324219 158.550781 201.449219 159.148438 201 C 159.675781 200.550781 162.074219 201.226562 162.074219 201.226562 " clip-rule="nonzero"/></clipPath><clipPath id="673965958b"><path d="M 211.625 113.765625 L 218.105469 113.765625 L 218.105469 176.347656 L 211.625 176.347656 Z M 211.625 113.765625 " clip-rule="nonzero"/></clipPath><clipPath id="5bd7275379"><path d="M 212.324219 174.074219 C 212.773438 138.148438 211.125 120.449219 211.800781 116.476562 C 211.949219 115.5 212.101562 115.125 212.476562 114.675781 C 212.851562 114.300781 213.523438 113.925781 214.125 113.851562 C 214.726562 113.773438 215.476562 113.925781 215.925781 114.300781 C 216.449219 114.75 217.050781 115.800781 217.050781 116.476562 C 217.125 117 216.898438 117.601562 216.523438 118.050781 C 216.074219 118.574219 215.023438 119.101562 214.273438 119.101562 C 213.601562 119.023438 212.550781 118.425781 212.175781 117.824219 C 211.800781 117.226562 211.726562 116.023438 212.023438 115.351562 C 212.324219 114.675781 213.300781 114 213.976562 113.851562 C 214.726562 113.699219 215.851562 114.148438 216.375 114.675781 C 216.824219 115.199219 217.199219 116.324219 216.976562 117 C 216.824219 117.75 216.074219 118.648438 215.398438 118.875 C 214.726562 119.175781 213.523438 119.101562 212.925781 118.648438 C 212.324219 118.125 211.800781 116.625 211.875 115.800781 C 211.949219 115.199219 212.476562 114.601562 212.925781 114.300781 C 213.449219 113.925781 214.125 113.699219 214.726562 113.851562 C 215.476562 114 216.375 114.523438 216.976562 115.800781 C 218.925781 120 217.726562 138 217.648438 148.199219 C 217.574219 157.5 217.800781 171.449219 216.75 174.601562 C 216.523438 175.351562 216.300781 175.648438 215.851562 175.875 C 215.476562 176.175781 214.800781 176.324219 214.351562 176.324219 C 213.824219 176.25 213.226562 175.949219 212.925781 175.574219 C 212.550781 175.199219 212.324219 174.074219 212.324219 174.074219 " clip-rule="nonzero"/></clipPath><clipPath id="1e390648c7"><path d="M 211 175.539062 L 217.671875 175.539062 L 217.671875 201.96875 L 211 201.96875 Z M 211 175.539062 " clip-rule="nonzero"/></clipPath><clipPath id="458fc11d38"><path d="M 212.25 193.425781 C 212.625 176.851562 213.148438 176.101562 213.824219 175.726562 C 214.351562 175.5 215.101562 175.5 215.625 175.726562 C 216.148438 176.023438 216.75 176.550781 217.125 177.449219 C 218.023438 179.773438 217.5 186.976562 217.273438 191.175781 C 217.199219 194.625 217.574219 199.199219 216.375 200.773438 C 215.699219 201.675781 214.273438 201.976562 213.449219 201.824219 C 212.773438 201.675781 212.023438 200.773438 211.800781 200.101562 C 211.574219 199.425781 211.875 198.300781 212.25 197.773438 C 212.550781 197.324219 213.074219 196.949219 213.601562 196.875 C 214.273438 196.800781 215.398438 197.023438 215.925781 197.476562 C 216.449219 197.925781 216.824219 199.050781 216.75 199.726562 C 216.75 200.324219 216.449219 200.851562 216.074219 201.226562 C 215.550781 201.601562 214.425781 202.125 213.75 201.898438 C 212.925781 201.675781 212.175781 200.851562 211.726562 199.574219 C 210.449219 196.125 211.125 181.5 212.25 178.050781 C 212.625 176.773438 213.148438 176.101562 213.824219 175.726562 C 214.351562 175.5 215.101562 175.5 215.625 175.726562 C 216.148438 176.023438 216.75 176.476562 217.125 177.449219 C 218.101562 180 217.351562 190.875 216.898438 193.425781 C 216.75 194.175781 216.601562 194.550781 216.300781 194.925781 C 215.925781 195.300781 215.324219 195.601562 214.800781 195.675781 C 214.351562 195.75 213.675781 195.601562 213.226562 195.300781 C 212.773438 194.925781 212.25 193.425781 212.25 193.425781 " clip-rule="nonzero"/></clipPath><clipPath id="74d7ccf5d7"><path d="M 211.210938 200.839844 L 217.453125 200.839844 L 217.453125 212.582031 L 211.210938 212.582031 Z M 211.210938 200.839844 " clip-rule="nonzero"/></clipPath><clipPath id="03ff8e7b6f"><path d="M 216.523438 203.175781 C 216.226562 207.898438 215.625 208.949219 214.949219 209.324219 C 214.351562 209.699219 213.375 209.851562 212.773438 209.625 C 212.101562 209.25 211.425781 208.273438 211.273438 207.375 C 211.050781 206.101562 212.023438 203.398438 212.699219 202.574219 C 213.148438 202.050781 213.75 201.898438 214.273438 201.824219 C 214.875 201.824219 215.550781 202.050781 216 202.351562 C 216.375 202.726562 216.675781 203.101562 216.898438 203.851562 C 217.273438 205.273438 217.800781 209.398438 217.050781 210.824219 C 216.601562 211.800781 215.398438 212.550781 214.574219 212.550781 C 213.898438 212.550781 212.925781 211.875 212.550781 211.351562 C 212.25 210.898438 212.101562 210.375 212.175781 209.851562 C 212.324219 209.175781 212.851562 208.199219 213.523438 207.898438 C 214.125 207.523438 215.25 207.523438 215.851562 207.824219 C 216.449219 208.125 217.050781 209.101562 217.125 209.773438 C 217.273438 210.449219 216.824219 211.5 216.300781 211.949219 C 215.773438 212.398438 214.648438 212.550781 214.050781 212.476562 C 213.523438 212.398438 213.074219 212.101562 212.699219 211.574219 C 212.175781 210.675781 212.023438 208.5 212.023438 207 C 212.023438 205.5 212.101562 203.398438 212.699219 202.574219 C 213.148438 202.050781 213.75 201.898438 214.273438 201.824219 C 214.875 201.824219 215.550781 201.976562 216 202.351562 C 216.449219 202.800781 216.898438 203.625 216.898438 204.449219 C 216.976562 205.648438 216.300781 208.199219 215.398438 208.949219 C 214.726562 209.550781 213.449219 209.851562 212.773438 209.625 C 212.101562 209.324219 211.425781 208.351562 211.273438 207.375 C 211.050781 205.875 211.949219 202.125 212.925781 201.300781 C 213.523438 200.773438 214.5 200.773438 215.101562 201 C 215.699219 201.300781 216.523438 203.175781 216.523438 203.175781 " clip-rule="nonzero"/></clipPath><clipPath id="c5e487d9f7"><path d="M 212.394531 208.753906 L 216.90625 208.753906 L 216.90625 213.347656 L 212.394531 213.347656 Z M 212.394531 208.753906 " clip-rule="nonzero"/></clipPath><clipPath id="276737730a"><path d="M 216.898438 211.050781 C 215.398438 213.300781 214.425781 213.375 213.824219 213.148438 C 213.300781 212.925781 212.625 212.175781 212.476562 211.574219 C 212.324219 210.976562 212.625 210 213.074219 209.550781 C 213.449219 209.101562 214.425781 208.726562 215.023438 208.875 C 215.625 208.949219 216.449219 209.550781 216.75 210.148438 C 216.976562 210.675781 216.898438 211.726562 216.601562 212.25 C 216.300781 212.773438 215.398438 213.226562 214.800781 213.300781 C 214.351562 213.375 213.824219 213.226562 213.449219 212.925781 C 213 212.550781 212.476562 211.648438 212.398438 211.050781 C 212.398438 210.523438 212.625 209.925781 213 209.550781 C 213.300781 209.175781 213.898438 208.875 214.425781 208.800781 C 214.875 208.726562 215.550781 208.875 215.925781 209.175781 C 216.449219 209.550781 216.898438 211.050781 216.898438 211.050781 " clip-rule="nonzero"/></clipPath><clipPath id="c09be4acfe"><path d="M 212.578125 210.175781 L 216.835938 210.175781 L 216.835938 213.824219 L 212.578125 213.824219 Z M 212.578125 210.175781 " clip-rule="nonzero"/></clipPath><clipPath id="60c15b17c9"><path d="M 216.824219 211.5 C 214.949219 214.5 213.148438 213.976562 212.773438 213.300781 C 212.398438 212.699219 212.699219 210.824219 213.300781 210.375 C 213.898438 209.925781 216.300781 210.523438 216.300781 210.523438 " clip-rule="nonzero"/></clipPath><clipPath id="b779202edc"><path d="M 212.578125 211.753906 L 217.128906 211.753906 L 217.128906 216.347656 L 212.578125 216.347656 Z M 212.578125 211.753906 " clip-rule="nonzero"/></clipPath><clipPath id="044d58c26b"><path d="M 217.125 214.050781 C 215.625 216.226562 214.574219 216.375 214.050781 216.148438 C 213.449219 215.925781 212.773438 215.101562 212.625 214.5 C 212.550781 213.898438 212.773438 212.925781 213.226562 212.476562 C 213.675781 212.023438 214.574219 211.726562 215.25 211.800781 C 215.851562 211.875 216.601562 212.550781 216.898438 213.074219 C 217.125 213.675781 217.125 214.648438 216.75 215.175781 C 216.449219 215.699219 215.550781 216.226562 214.949219 216.300781 C 214.5 216.375 213.976562 216.226562 213.601562 215.925781 C 213.148438 215.550781 212.625 214.648438 212.625 214.050781 C 212.550781 213.523438 212.851562 212.925781 213.148438 212.550781 C 213.449219 212.175781 214.050781 211.875 214.574219 211.800781 C 215.023438 211.726562 215.699219 211.800781 216.148438 212.175781 C 216.601562 212.476562 217.125 213.976562 217.125 213.976562 " clip-rule="nonzero"/></clipPath><clipPath id="ee03337861"><path d="M 212.578125 211.867188 L 217.171875 211.867188 L 217.171875 216.378906 L 212.578125 216.378906 Z M 212.578125 211.867188 " clip-rule="nonzero"/></clipPath><clipPath id="93983e0568"><path d="M 214.875 211.875 C 217.050781 213.375 217.199219 214.351562 216.976562 214.949219 C 216.75 215.550781 215.925781 216.148438 215.324219 216.300781 C 214.726562 216.449219 213.75 216.148438 213.300781 215.699219 C 212.851562 215.324219 212.550781 214.351562 212.625 213.75 C 212.699219 213.148438 213.375 212.324219 213.898438 212.023438 C 214.5 211.800781 215.476562 211.875 216 212.175781 C 216.523438 212.476562 217.050781 213.375 217.125 213.976562 C 217.199219 214.425781 217.050781 215.023438 216.75 215.398438 C 216.375 215.851562 215.476562 216.300781 214.875 216.375 C 214.351562 216.375 213.75 216.148438 213.375 215.773438 C 213 215.476562 212.625 214.875 212.625 214.351562 C 212.550781 213.75 212.925781 212.851562 213.375 212.398438 C 213.75 212.023438 214.875 211.875 214.875 211.875 " clip-rule="nonzero"/></clipPath><clipPath id="86dd67d878"><path d="M 212.578125 214.195312 L 217.171875 214.195312 L 217.171875 218.707031 L 212.578125 218.707031 Z M 212.578125 214.195312 " clip-rule="nonzero"/></clipPath><clipPath id="6c9d41150d"><path d="M 214.875 214.199219 C 217.050781 215.699219 217.199219 216.675781 216.976562 217.273438 C 216.75 217.875 215.925781 218.476562 215.324219 218.625 C 214.726562 218.773438 213.75 218.476562 213.300781 218.023438 C 212.851562 217.648438 212.550781 216.675781 212.625 216.074219 C 212.699219 215.476562 213.375 214.648438 213.898438 214.351562 C 214.5 214.125 215.476562 214.199219 216 214.5 C 216.523438 214.800781 217.050781 215.699219 217.125 216.300781 C 217.199219 216.75 217.050781 217.351562 216.75 217.726562 C 216.375 218.175781 215.476562 218.625 214.875 218.699219 C 214.351562 218.699219 213.75 218.476562 213.375 218.101562 C 213 217.800781 212.625 217.199219 212.625 216.675781 C 212.550781 216.074219 212.925781 215.175781 213.375 214.726562 C 213.75 214.351562 214.875 214.199219 214.875 214.199219 " clip-rule="nonzero"/></clipPath><clipPath id="9ccb338b8f"><path d="M 213.273438 215.597656 L 217.816406 215.597656 L 217.816406 220.144531 L 213.273438 220.144531 Z M 213.273438 215.597656 " clip-rule="nonzero"/></clipPath><clipPath id="55f56a2d07"><path d="M 213.300781 217.875 C 214.800781 215.699219 215.773438 215.550781 216.375 215.773438 C 216.898438 216.074219 217.574219 216.824219 217.726562 217.425781 C 217.875 218.023438 217.574219 219 217.125 219.449219 C 216.75 219.898438 215.773438 220.199219 215.175781 220.125 C 214.574219 220.050781 213.75 219.375 213.449219 218.851562 C 213.226562 218.25 213.300781 217.273438 213.601562 216.75 C 213.898438 216.226562 214.800781 215.699219 215.398438 215.625 C 215.851562 215.625 216.375 215.699219 216.75 216.074219 C 217.273438 216.375 217.726562 217.273438 217.800781 217.875 C 217.800781 218.398438 217.574219 219 217.199219 219.375 C 216.824219 219.824219 215.851562 220.199219 215.25 220.125 C 214.726562 220.125 214.199219 219.824219 213.824219 219.449219 C 213.523438 219.074219 213.300781 217.949219 213.300781 217.949219 " clip-rule="nonzero"/></clipPath><clipPath id="27b48ca99e"><path d="M 212.578125 112 L 216.835938 112 L 216.835938 115.648438 L 212.578125 115.648438 Z M 212.578125 112 " clip-rule="nonzero"/></clipPath><clipPath id="43c459277b"><path d="M 216.824219 113.25 C 214.949219 116.324219 213.148438 115.726562 212.773438 115.125 C 212.398438 114.449219 212.699219 112.648438 213.300781 112.199219 C 213.898438 111.675781 216.300781 112.351562 216.300781 112.351562 " clip-rule="nonzero"/></clipPath><clipPath id="18ac041dd7"><path d="M 212.578125 110.464844 L 216.835938 110.464844 L 216.835938 114.148438 L 212.578125 114.148438 Z M 212.578125 110.464844 " clip-rule="nonzero"/></clipPath><clipPath id="19a8ea4326"><path d="M 216.824219 111.75 C 214.949219 114.824219 213.148438 114.226562 212.773438 113.625 C 212.398438 112.949219 212.699219 111.148438 213.300781 110.699219 C 213.898438 110.175781 216.300781 110.851562 216.300781 110.851562 " clip-rule="nonzero"/></clipPath><clipPath id="e96c85930d"><path d="M 211.492188 107.726562 L 216.046875 107.726562 L 216.046875 112.28125 L 211.492188 112.28125 Z M 211.492188 107.726562 " clip-rule="nonzero"/></clipPath><clipPath id="75af3e4fb5"><path d="M 213.75 112.273438 C 211.574219 110.773438 211.425781 109.726562 211.648438 109.199219 C 211.949219 108.601562 212.699219 107.925781 213.300781 107.773438 C 213.898438 107.699219 214.875 107.925781 215.324219 108.375 C 215.773438 108.824219 216.074219 109.726562 216 110.398438 C 215.925781 111 215.25 111.75 214.726562 112.050781 C 214.125 112.273438 213.148438 112.273438 212.625 111.898438 C 212.101562 111.601562 211.574219 110.699219 211.5 110.101562 C 211.5 109.648438 211.574219 109.125 211.949219 108.75 C 212.25 108.300781 213.148438 107.773438 213.75 107.773438 C 214.273438 107.699219 214.875 108 215.25 108.300781 C 215.625 108.675781 216 109.199219 216 109.726562 C 216.074219 110.324219 215.699219 111.300781 215.25 111.675781 C 214.875 112.050781 213.75 112.273438 213.75 112.273438 " clip-rule="nonzero"/></clipPath></defs><g clip-path="url(#135fe6d743)"><path fill="#1e3a8a" d="M 205.375 107.273438 L 205.375 186.136719 L 177.179688 158.753906 L 177.179688 184.023438 L 214.441406 220.203125 L 214.441406 98.207031 C 209.433594 98.207031 205.375 102.265625 205.375 107.273438 " fill-opacity="1" fill-rule="nonzero"/></g><g clip-path="url(#32f2a9fbae)"><path fill="#1e3a8a" d="M 223.503906 107.273438 C 223.503906 102.265625 219.445312 98.207031 214.441406 98.207031 L 214.441406 220.203125 L 223.503906 229.003906 L 223.503906 107.273438 " fill-opacity="1" fill-rule="nonzero"/></g><g clip-path="url(#6511761d70)"><path fill="#14532d" d="M 151.511719 98.207031 L 151.511719 196.027344 C 151.511719 201.03125 155.570312 205.089844 160.578125 205.089844 L 160.578125 107.644531 L 151.511719 98.207031 " fill-opacity="1" fill-rule="nonzero"/></g><path fill="#14532d" d="M 160.578125 107.644531 L 160.578125 205.089844 C 165.582031 205.089844 169.640625 201.03125 169.640625 196.027344 L 169.640625 143.246094 L 196.570312 171.28125 L 196.570312 145.113281 L 160.578125 107.644531 " fill-opacity="1" fill-rule="nonzero"/><g clip-path="url(#c720d8509e)"><g clip-path="url(#efdade9dcd)"><g clip-path="url(#556a2bfb11)"><g clip-path="url(#b65cdcdd49)"><g clip-path="url(#6f76056a55)"><g clip-path="url(#96d284bd9a)"><path fill="#000000" d="M 206.640625 87.769531 L 219.625 99.414062 L 237.035156 100.496094 L 233.207031 109.640625 C 232.011719 112.5 224.234375 111.964844 215.84375 108.453125 C 207.449219 104.9375 201.613281 99.773438 202.808594 96.914062 Z M 228.585938 78.011719 L 252.824219 99.746094 L 248.019531 99.445312 L 244.628906 107.542969 L 244.730469 107.628906 C 245.25 108.160156 245.433594 108.964844 245.128906 109.6875 C 244.925781 110.171875 244.546875 110.523438 244.097656 110.707031 L 244.058594 110.71875 L 242.644531 116.851562 L 238.257812 115.015625 L 241.636719 109.703125 L 241.617188 109.667969 C 241.433594 109.21875 241.417969 108.703125 241.621094 108.21875 C 241.925781 107.496094 242.625 107.0625 243.367188 107.058594 L 243.5 107.070312 L 246.726562 99.367188 L 220.332031 97.726562 L 196.097656 75.992188 Z M 228.585938 78.011719 " fill-opacity="1" fill-rule="evenodd"/></g></g></g></g></g></g><path fill="#1e3a8a" d="M 159.191406 239.28125 L 159.191406 257.0625 L 155.816406 257.0625 L 146.941406 246.265625 L 146.941406 257.0625 L 142.878906 257.0625 L 142.878906 239.28125 L 146.285156 239.28125 L 155.128906 250.078125 L 155.128906 239.28125 Z M 159.191406 239.28125 " fill-opacity="1" fill-rule="nonzero"/><path fill="#14532d" d="M 172.652344 257.375 C 170.808594 257.375 169.140625 256.980469 167.652344 256.1875 C 166.171875 255.386719 165.011719 254.289062 164.167969 252.890625 C 163.332031 251.484375 162.917969 249.914062 162.917969 248.171875 C 162.917969 246.421875 163.332031 244.851562 164.167969 243.453125 C 165.011719 242.058594 166.171875 240.964844 167.652344 240.171875 C 169.140625 239.371094 170.808594 238.96875 172.652344 238.96875 C 174.496094 238.96875 176.152344 239.371094 177.621094 240.171875 C 179.097656 240.964844 180.261719 242.058594 181.105469 243.453125 C 181.957031 244.851562 182.386719 246.421875 182.386719 248.171875 C 182.386719 249.914062 181.957031 251.484375 181.105469 252.890625 C 180.261719 254.289062 179.097656 255.386719 177.621094 256.1875 C 176.152344 256.980469 174.496094 257.375 172.652344 257.375 Z M 172.652344 253.859375 C 173.703125 253.859375 174.652344 253.621094 175.496094 253.140625 C 176.347656 252.652344 177.015625 251.980469 177.496094 251.125 C 177.972656 250.261719 178.214844 249.277344 178.214844 248.171875 C 178.214844 247.070312 177.972656 246.085938 177.496094 245.21875 C 177.015625 244.355469 176.347656 243.683594 175.496094 243.203125 C 174.652344 242.726562 173.703125 242.484375 172.652344 242.484375 C 171.597656 242.484375 170.652344 242.726562 169.808594 243.203125 C 168.964844 243.683594 168.296875 244.355469 167.808594 245.21875 C 167.328125 246.085938 167.089844 247.070312 167.089844 248.171875 C 167.089844 249.277344 167.328125 250.261719 167.808594 251.125 C 168.296875 251.980469 168.964844 252.652344 169.808594 253.140625 C 170.652344 253.621094 171.597656 253.859375 172.652344 253.859375 Z M 172.652344 253.859375 " fill-opacity="1" fill-rule="nonzero"/><path fill="#14532d" d="M 189.800781 242.625 L 184.113281 242.625 L 184.113281 239.28125 L 199.597656 239.28125 L 199.597656 242.625 L 193.910156 242.625 L 193.910156 257.0625 L 189.800781 257.0625 Z M 189.800781 242.625 " fill-opacity="1" fill-rule="nonzero"/><path fill="#14532d" d="M 216.207031 253.765625 L 216.207031 257.0625 L 202.441406 257.0625 L 202.441406 239.28125 L 215.878906 239.28125 L 215.878906 242.578125 L 206.535156 242.578125 L 206.535156 246.4375 L 214.785156 246.4375 L 214.785156 249.640625 L 206.535156 249.640625 L 206.535156 253.765625 Z M 216.207031 253.765625 " fill-opacity="1" fill-rule="nonzero"/><path fill="#14532d" d="M 225.960938 257.375 C 224.554688 257.375 223.195312 257.179688 221.882812 256.796875 C 220.570312 256.414062 219.515625 255.917969 218.726562 255.3125 L 220.117188 252.203125 C 220.875 252.765625 221.78125 253.21875 222.835938 253.5625 C 223.886719 253.898438 224.9375 254.0625 225.992188 254.0625 C 227.15625 254.0625 228.015625 253.890625 228.570312 253.546875 C 229.132812 253.195312 229.414062 252.730469 229.414062 252.15625 C 229.414062 251.742188 229.246094 251.390625 228.914062 251.109375 C 228.589844 250.828125 228.167969 250.605469 227.648438 250.4375 C 227.125 250.261719 226.429688 250.074219 225.554688 249.875 C 224.199219 249.554688 223.089844 249.230469 222.226562 248.90625 C 221.359375 248.585938 220.617188 248.070312 219.992188 247.359375 C 219.375 246.652344 219.070312 245.703125 219.070312 244.515625 C 219.070312 243.484375 219.351562 242.554688 219.914062 241.71875 C 220.476562 240.875 221.320312 240.210938 222.445312 239.71875 C 223.570312 239.21875 224.945312 238.96875 226.570312 238.96875 C 227.703125 238.96875 228.8125 239.105469 229.898438 239.375 C 230.980469 239.648438 231.929688 240.039062 232.742188 240.546875 L 231.476562 243.671875 C 229.828125 242.746094 228.183594 242.28125 226.539062 242.28125 C 225.390625 242.28125 224.542969 242.46875 223.992188 242.84375 C 223.4375 243.210938 223.164062 243.699219 223.164062 244.3125 C 223.164062 244.917969 223.480469 245.371094 224.117188 245.671875 C 224.75 245.964844 225.71875 246.257812 227.023438 246.546875 C 228.375 246.871094 229.484375 247.195312 230.351562 247.515625 C 231.214844 247.839844 231.953125 248.351562 232.570312 249.046875 C 233.195312 249.734375 233.507812 250.671875 233.507812 251.859375 C 233.507812 252.871094 233.21875 253.796875 232.648438 254.640625 C 232.085938 255.476562 231.234375 256.140625 230.101562 256.640625 C 228.964844 257.128906 227.585938 257.375 225.960938 257.375 Z M 225.960938 257.375 " fill-opacity="1" fill-rule="nonzero"/><g clip-path="url(#1ef4a42d61)"><g clip-path="url(#35e6381e9e)"><path fill="#14532d" d="M 156.148438 142.425781 L 166.425781 142.425781 L 166.425781 173.53125 L 156.148438 173.53125 Z M 156.148438 142.425781 " fill-opacity="1" fill-rule="nonzero"/></g></g><g clip-path="url(#ec16b9ca16)"><g clip-path="url(#45caa92dd6)"><path fill="#14532d" d="M 156 154.425781 L 166.273438 154.425781 L 166.273438 187.859375 L 156 187.859375 Z M 156 154.425781 " fill-opacity="1" fill-rule="nonzero"/></g></g><g clip-path="url(#78df429b43)"><g clip-path="url(#78a08b406f)"><path fill="#14532d" d="M 154.800781 110.625 L 166.648438 110.625 L 166.648438 154.738281 L 154.800781 154.738281 Z M 154.800781 110.625 " fill-opacity="1" fill-rule="nonzero"/></g></g><g clip-path="url(#23f1c3b9f9)"><g clip-path="url(#b70c05e008)"><path fill="#14532d" d="M 154.5 183.675781 L 165.074219 183.675781 L 165.074219 194.25 L 154.5 194.25 Z M 154.5 183.675781 " fill-opacity="1" fill-rule="nonzero"/></g></g><g clip-path="url(#9a5f8291f9)"><g clip-path="url(#fffff8b5d5)"><path fill="#14532d" d="M 155.625 180.75 L 165.757812 180.75 L 165.757812 190.574219 L 155.625 190.574219 Z M 155.625 180.75 " fill-opacity="1" fill-rule="nonzero"/></g></g><g clip-path="url(#a4e3b8d9f7)"><g clip-path="url(#66511f9878)"><path fill="#14532d" d="M 155.324219 180.300781 L 165.898438 180.300781 L 165.898438 190.875 L 155.324219 190.875 Z M 155.324219 180.300781 " fill-opacity="1" fill-rule="nonzero"/></g></g><g clip-path="url(#755217528d)"><g clip-path="url(#59f1d7596b)"><path fill="#14532d" d="M 155.625 191.25 L 166.199219 191.25 L 166.199219 201.824219 L 155.625 201.824219 Z M 155.625 191.25 " fill-opacity="1" fill-rule="nonzero"/></g></g><g clip-path="url(#68fc83f184)"><g clip-path="url(#95c095b4b5)"><path fill="#14532d" d="M 156 191.625 L 166.132812 191.625 L 166.132812 201.449219 L 156 201.449219 Z M 156 191.625 " fill-opacity="1" fill-rule="nonzero"/></g></g><g clip-path="url(#e2b86faac6)"><g clip-path="url(#2a0490f662)"><path fill="#14532d" d="M 155.550781 189.375 L 165.683594 189.375 L 165.683594 199.199219 L 155.550781 199.199219 Z M 155.550781 189.375 " fill-opacity="1" fill-rule="nonzero"/><path fill="#14532d" d="M 155.550781 189.375 L 165.683594 189.375 L 165.683594 199.199219 L 155.550781 199.199219 Z M 155.550781 189.375 " fill-opacity="1" fill-rule="nonzero"/></g></g><g clip-path="url(#6a9ed557a8)"><g clip-path="url(#5f7aa95a65)"><path fill="#14532d" d="M 154.800781 192.148438 L 165.300781 192.148438 L 165.300781 202.648438 L 154.800781 202.648438 Z M 154.800781 192.148438 " fill-opacity="1" fill-rule="nonzero"/></g></g><g clip-path="url(#b86d4922da)"><g clip-path="url(#2d3b68513f)"><path fill="#14532d" d="M 155.25 194.175781 L 165.382812 194.175781 L 165.382812 204 L 155.25 204 Z M 155.25 194.175781 " fill-opacity="1" fill-rule="nonzero"/></g></g><g clip-path="url(#f88dd82570)"><g clip-path="url(#c63514b1e6)"><path fill="#14532d" d="M 155.25 188.699219 L 165.382812 188.699219 L 165.382812 198.523438 L 155.25 198.523438 Z M 155.25 188.699219 " fill-opacity="1" fill-rule="nonzero"/><path fill="#14532d" d="M 155.25 188.699219 L 165.382812 188.699219 L 165.382812 198.523438 L 155.25 198.523438 Z M 155.25 188.699219 " fill-opacity="1" fill-rule="nonzero"/><path fill="#14532d" d="M 155.25 188.699219 L 165.382812 188.699219 L 165.382812 198.523438 L 155.25 198.523438 Z M 155.25 188.699219 " fill-opacity="1" fill-rule="nonzero"/></g></g><g clip-path="url(#be71183628)"><g clip-path="url(#61d2b329ec)"><path fill="#14532d" d="M 155.625 185.550781 L 165.757812 185.550781 L 165.757812 195.375 L 155.625 195.375 Z M 155.625 185.550781 " fill-opacity="1" fill-rule="nonzero"/></g></g><g clip-path="url(#c10552d7b6)"><g clip-path="url(#63ab3b5fad)"><path fill="#14532d" d="M 155.25 185.023438 L 165.832031 185.023438 L 165.832031 195.523438 L 155.25 195.523438 Z M 155.25 185.023438 " fill-opacity="1" fill-rule="nonzero"/></g></g><g clip-path="url(#38f28896db)"><g clip-path="url(#d2f5f82b1c)"><path fill="#14532d" d="M 155.550781 192.300781 L 166.125 192.300781 L 166.125 202.875 L 155.550781 202.875 Z M 155.550781 192.300781 " fill-opacity="1" fill-rule="nonzero"/></g></g><g clip-path="url(#1e1b2eb63a)"><g clip-path="url(#36c5f435b3)"><path fill="#14532d" d="M 155.625 195.074219 L 165.757812 195.074219 L 165.757812 204.898438 L 155.625 204.898438 Z M 155.625 195.074219 " fill-opacity="1" fill-rule="nonzero"/></g></g><g clip-path="url(#89ec98194d)"><g clip-path="url(#35d6ce5844)"><path fill="#14532d" d="M 155.625 196.574219 L 165.757812 196.574219 L 165.757812 206.398438 L 155.625 206.398438 Z M 155.625 196.574219 " fill-opacity="1" fill-rule="nonzero"/></g></g><g clip-path="url(#be8b567d2e)"><g clip-path="url(#0d99d5264b)"><path fill="#14532d" d="M 155.550781 197.476562 L 165.683594 197.476562 L 165.683594 207.300781 L 155.550781 207.300781 Z M 155.550781 197.476562 " fill-opacity="1" fill-rule="nonzero"/></g></g><g clip-path="url(#a9aabdb947)"><g clip-path="url(#c09289237b)"><path fill="#14532d" d="M 155.699219 197.625 L 165.832031 197.625 L 165.832031 207.449219 L 155.699219 207.449219 Z M 155.699219 197.625 " fill-opacity="1" fill-rule="nonzero"/></g></g><g clip-path="url(#93be6ad0b1)"><g clip-path="url(#d67f4b5e10)"><path fill="#14532d" d="M 155.625 107.625 L 166.199219 107.625 L 166.199219 118.199219 L 155.625 118.199219 Z M 155.625 107.625 " fill-opacity="1" fill-rule="nonzero"/></g></g><g clip-path="url(#c9097f5b89)"><g clip-path="url(#ce3d7e3d9a)"><path fill="#14532d" d="M 156.675781 106.050781 L 164.09375 106.050781 L 164.09375 113.324219 L 156.675781 113.324219 Z M 156.675781 106.050781 " fill-opacity="1" fill-rule="nonzero"/></g></g><g clip-path="url(#a840e1b356)"><g clip-path="url(#196f291e6a)"><path fill="#14532d" d="M 155.25 105.148438 L 168 105.148438 L 168 120.988281 L 155.25 120.988281 Z M 155.25 105.148438 " fill-opacity="1" fill-rule="nonzero"/></g></g><g clip-path="url(#31e6511bc1)"><g clip-path="url(#e4d88a4af5)"><path fill="#14532d" d="M 155.699219 103.875 L 164.550781 103.875 L 164.550781 114.453125 L 155.699219 114.453125 Z M 155.699219 103.875 " fill-opacity="1" fill-rule="nonzero"/></g></g><g clip-path="url(#6e71c62570)"><g clip-path="url(#a4be04710c)"><path fill="#14532d" d="M 156.449219 104.625 L 163.867188 104.625 L 163.867188 111.898438 L 156.449219 111.898438 Z M 156.449219 104.625 " fill-opacity="1" fill-rule="nonzero"/></g></g><g clip-path="url(#c047ced240)"><g clip-path="url(#a813a47d71)"><path fill="#14532d" d="M 155.324219 197.925781 L 165.457031 197.925781 L 165.457031 207.75 L 155.324219 207.75 Z M 155.324219 197.925781 " fill-opacity="1" fill-rule="nonzero"/></g></g><g clip-path="url(#28d4daea2d)"><g clip-path="url(#d01895c9e1)"><path fill="#14532d" d="M 155.550781 197.699219 L 165.683594 197.699219 L 165.683594 207.523438 L 155.550781 207.523438 Z M 155.550781 197.699219 " fill-opacity="1" fill-rule="nonzero"/><path fill="#14532d" d="M 155.550781 197.699219 L 165.683594 197.699219 L 165.683594 207.523438 L 155.550781 207.523438 Z M 155.550781 197.699219 " fill-opacity="1" fill-rule="nonzero"/><path fill="#14532d" d="M 155.550781 197.699219 L 165.683594 197.699219 L 165.683594 207.523438 L 155.550781 207.523438 Z M 155.550781 197.699219 " fill-opacity="1" fill-rule="nonzero"/></g></g><g clip-path="url(#ac657bb140)"><g clip-path="url(#f32da12d5f)"><path fill="#14532d" d="M 155.550781 198 L 165.683594 198 L 165.683594 207.824219 L 155.550781 207.824219 Z M 155.550781 198 " fill-opacity="1" fill-rule="nonzero"/></g></g><g clip-path="url(#673965958b)"><g clip-path="url(#5bd7275379)"><path fill="#1e3a8a" d="M 208.800781 110.851562 L 220.648438 110.851562 L 220.648438 179.3125 L 208.800781 179.3125 Z M 208.800781 110.851562 " fill-opacity="1" fill-rule="nonzero"/></g></g><g clip-path="url(#1e390648c7)"><g clip-path="url(#458fc11d38)"><path fill="#1e3a8a" d="M 208.726562 172.726562 L 220.351562 172.726562 L 220.351562 204.921875 L 208.726562 204.921875 Z M 208.726562 172.726562 " fill-opacity="1" fill-rule="nonzero"/></g></g><g clip-path="url(#74d7ccf5d7)"><g clip-path="url(#03ff8e7b6f)"><path fill="#1e3a8a" d="M 208.273438 198 L 220.199219 198 L 220.199219 215.5625 L 208.273438 215.5625 Z M 208.273438 198 " fill-opacity="1" fill-rule="nonzero"/></g></g><g clip-path="url(#c5e487d9f7)"><g clip-path="url(#276737730a)"><path fill="#1e3a8a" d="M 209.398438 205.800781 L 219.980469 205.800781 L 219.980469 216.300781 L 209.398438 216.300781 Z M 209.398438 205.800781 " fill-opacity="1" fill-rule="nonzero"/></g></g><g clip-path="url(#c09be4acfe)"><g clip-path="url(#60c15b17c9)"><path fill="#1e3a8a" d="M 209.773438 207.375 L 219.90625 207.375 L 219.90625 217.199219 L 209.773438 217.199219 Z M 209.773438 207.375 " fill-opacity="1" fill-rule="nonzero"/></g></g><g clip-path="url(#b779202edc)"><g clip-path="url(#044d58c26b)"><path fill="#1e3a8a" d="M 209.625 208.800781 L 220.207031 208.800781 L 220.207031 219.300781 L 209.625 219.300781 Z M 209.625 208.800781 " fill-opacity="1" fill-rule="nonzero"/></g></g><g clip-path="url(#ee03337861)"><g clip-path="url(#93983e0568)"><path fill="#1e3a8a" d="M 209.625 208.875 L 220.125 208.875 L 220.125 219.457031 L 209.625 219.457031 Z M 209.625 208.875 " fill-opacity="1" fill-rule="nonzero"/><path fill="#1e3a8a" d="M 209.625 208.875 L 220.125 208.875 L 220.125 219.457031 L 209.625 219.457031 Z M 209.625 208.875 " fill-opacity="1" fill-rule="nonzero"/></g></g><g clip-path="url(#86dd67d878)"><g clip-path="url(#6c9d41150d)"><path fill="#1e3a8a" d="M 209.625 211.199219 L 220.125 211.199219 L 220.125 221.78125 L 209.625 221.78125 Z M 209.625 211.199219 " fill-opacity="1" fill-rule="nonzero"/><path fill="#1e3a8a" d="M 209.625 211.199219 L 220.125 211.199219 L 220.125 221.78125 L 209.625 221.78125 Z M 209.625 211.199219 " fill-opacity="1" fill-rule="nonzero"/></g></g><g clip-path="url(#9ccb338b8f)"><g clip-path="url(#55f56a2d07)"><path fill="#1e3a8a" d="M 210.300781 212.625 L 220.875 212.625 L 220.875 223.199219 L 210.300781 223.199219 Z M 210.300781 212.625 " fill-opacity="1" fill-rule="nonzero"/></g></g><g clip-path="url(#27b48ca99e)"><g clip-path="url(#43c459277b)"><path fill="#1e3a8a" d="M 209.773438 109.199219 L 219.90625 109.199219 L 219.90625 119.023438 L 209.773438 119.023438 Z M 209.773438 109.199219 " fill-opacity="1" fill-rule="nonzero"/></g></g><g clip-path="url(#18ac041dd7)"><g clip-path="url(#19a8ea4326)"><path fill="#1e3a8a" d="M 209.773438 107.699219 L 219.90625 107.699219 L 219.90625 117.523438 L 209.773438 117.523438 Z M 209.773438 107.699219 " fill-opacity="1" fill-rule="nonzero"/></g></g><g clip-path="url(#e96c85930d)"><g clip-path="url(#75af3e4fb5)"><path fill="#1e3a8a" d="M 208.5 104.773438 L 219 104.773438 L 219 115.355469 L 208.5 115.355469 Z M 208.5 104.773438 " fill-opacity="1" fill-rule="nonzero"/></g></g></svg>